<svg width="16" height="16" viewBox="0 0 16 16" fill="none" xmlns="http://www.w3.org/2000/svg">
<circle cx="8" cy="8" r="8" fill="#BC9B5D"/>
<path d="M9.29161 2.90613C8.46144 3.78902 7.59653 4.64143 6.80906 5.56293C5.45558 7.1438 4.15175 8.76835 2.82508 10.3726C2.55994 10.6936 2.29481 11.0157 2.00882 11.3175C1.91547 11.417 1.75957 11.4597 1.62651 11.5125C1.59671 11.5247 1.51132 11.478 1.50635 11.4495C1.49841 11.3967 1.5133 11.3124 1.55004 11.2839C3.03361 10.144 3.86973 8.43003 5.13285 7.09605C6.42477 5.73158 7.71172 4.36305 9.00065 2.99655C9.02349 2.97217 9.04931 2.95083 9.07513 2.93051C9.26579 2.78116 9.46141 2.54444 9.70172 2.74154C9.75336 2.78421 9.61036 3.1652 9.48127 3.32878C8.48031 4.59876 7.46048 5.8535 6.4476 7.11332C6.38802 7.18748 6.3344 7.26775 6.33738 7.40389C6.65217 7.10214 6.96099 6.7943 7.28174 6.50068C8.06622 5.78339 8.84971 5.06408 9.65207 4.3661C9.81095 4.22792 10.0523 4.18627 10.2548 4.09991C10.1605 4.31022 10.1079 4.55507 9.96686 4.72474C8.77325 6.15931 7.56376 7.57864 6.36022 9.00508C6.25992 9.12497 6.17353 9.25704 6.14672 9.45313C6.4049 9.25806 6.65713 9.05385 6.92425 8.87199C7.00568 8.81712 7.12782 8.82627 7.23109 8.80595C7.21819 8.89738 7.19237 8.98984 7.19435 9.08128C7.2013 9.33527 7.17052 9.60451 7.24599 9.83819C7.3304 10.0983 7.52205 9.93877 7.63327 9.82904C8.05828 9.40842 8.4823 8.98578 8.88645 8.54382C10.2687 7.03102 11.6619 5.53143 13.2468 4.233C13.5159 4.01253 13.7999 3.81035 14.0889 3.61935C14.1524 3.57769 14.2676 3.61528 14.359 3.61732C14.3471 3.70977 14.3679 3.82864 14.3183 3.8896C14.0978 4.16087 13.8664 4.42401 13.6241 4.67597C12.4474 5.90023 11.2558 7.10925 10.091 8.34469C9.43559 9.04064 8.82092 9.77621 8.21716 10.5158C8.71268 10.1663 9.19528 9.79755 9.70569 9.47345C10.0781 9.23672 10.4713 9.0701 10.8695 9.4897C10.9708 9.59638 11.1972 9.58114 11.4772 9.64921C11.1188 9.83514 10.8566 9.89305 10.6272 9.61873C10.4366 9.39014 10.2201 9.39318 10.0086 9.51917C9.62625 9.74675 9.22309 9.96315 8.89738 10.2619C7.95401 11.1254 7.04441 12.0266 6.12189 12.9136C5.97493 13.0548 5.82399 13.194 5.67504 13.3332L5.57474 13.2346C6.44264 12.2085 7.29465 11.1671 8.1824 10.1592C9.07314 9.1463 9.9897 8.15673 10.9122 7.17428C11.8447 6.18064 12.7999 5.20835 13.7443 4.22589C13.7215 4.19948 13.6986 4.17204 13.6748 4.14563C13.1793 4.57742 12.655 4.98077 12.1942 5.4471C10.8735 6.78515 9.58157 8.15165 8.27277 9.50088C8.06523 9.71525 7.84081 9.91642 7.60348 10.0942C7.41977 10.2324 7.15265 10.2974 7.04639 10.0475C6.92028 9.75183 6.75743 9.76402 6.4625 9.91438C6.53996 9.69595 6.58762 9.56387 6.63429 9.43078C6.6184 9.40843 6.60152 9.38607 6.58563 9.36271C6.20928 9.65328 5.83392 9.94283 5.45757 10.2334C5.41685 10.2029 5.37713 10.1735 5.33642 10.143C5.44565 9.94486 5.52906 9.72643 5.66709 9.55168C6.22517 8.84557 6.7902 8.14454 7.37012 7.45774C8.10098 6.59212 8.84971 5.74275 9.58951 4.88526C9.66399 4.79891 9.72655 4.70239 9.79407 4.61095C9.76726 4.58047 9.73946 4.55101 9.71264 4.52053C9.23898 4.9574 8.76034 5.39021 8.29164 5.83216C7.79513 6.29951 7.29961 6.76788 6.81899 7.25149C6.35029 7.72291 5.90045 8.21464 5.44366 8.69825C4.99283 9.17576 4.54399 9.65531 4.09515 10.1338C4.04947 10.0983 4.00478 10.0637 3.9591 10.0282C4.08522 9.83717 4.19842 9.63499 4.33943 9.45719C6.00571 7.35309 7.67597 5.25407 9.34424 3.152C9.37403 3.1144 9.39389 3.06767 9.41871 3.025L9.28565 2.90613H9.29161Z" fill="white"/>
</svg>
